<svg id="Layer_1" data-name="Layer 1" xmlns="http://www.w3.org/2000/svg" viewBox="0 0 50.27 49.46"><path d="M437.65,422.74a13,13,0,0,1,2.92,2.09,12.71,12.71,0,0,1,2.21,2.76,14,14,0,0,1,1.43,3.3,13.13,13.13,0,0,1,.51,3.65h-3.14a10,10,0,0,0-.74-3.84,10.05,10.05,0,0,0-2-3.14,9.91,9.91,0,0,0-3-2.14,8.38,8.38,0,0,0-3.65-.77,8.8,8.8,0,0,0-3.66.77,9.72,9.72,0,0,0-5,5.28,10.21,10.21,0,0,0-.74,3.84h-3.14a13.5,13.5,0,0,1,.49-3.65,12.81,12.81,0,0,1,1.42-3.3,13.48,13.48,0,0,1,2.24-2.76,13,13,0,0,1,2.92-2.09,9.48,9.48,0,0,1-2.87-3.47,10.31,10.31,0,0,1-1.06-4.51,10.06,10.06,0,0,1,.74-3.84,9.94,9.94,0,0,1,2-3.14,9.68,9.68,0,0,1,3-2.14,8.4,8.4,0,0,1,3.69-.77,8.69,8.69,0,0,1,3.65.77,9.37,9.37,0,0,1,3,2.11,10.08,10.08,0,0,1,2,3.17,9.49,9.49,0,0,1,.74,3.84,10,10,0,0,1-1,4.51A9.46,9.46,0,0,1,437.65,422.74Zm-5.49-1.39a5.88,5.88,0,0,0,2.43-.51,6.86,6.86,0,0,0,2-1.42,6.16,6.16,0,0,0,1.35-2.09,7.39,7.39,0,0,0,.49-2.57,6.55,6.55,0,0,0-.49-2.55,7,7,0,0,0-1.35-2.11,5.91,5.91,0,0,0-2-1.42,6.39,6.39,0,0,0-2.45-.52,5.82,5.82,0,0,0-2.43.52,6.44,6.44,0,0,0-2,1.42,6.12,6.12,0,0,0-1.35,2.08,7.45,7.45,0,0,0-.49,2.58,6.73,6.73,0,0,0,.49,2.55,7.17,7.17,0,0,0,1.35,2.11,6,6,0,0,0,2,1.42A6.4,6.4,0,0,0,432.16,421.35Zm-12.57,2.06a18.15,18.15,0,0,0-1.43,2,15.25,15.25,0,0,0-1.12,2.21,9,9,0,0,0-3.15-2.19,9.62,9.62,0,0,0-3.73-.77h-9.42v-33h-3.15V428h19.32a11.94,11.94,0,0,0-.56,1.62c-.15.55-.27,1.11-.37,1.68H394.45V388.38h6.29v-3.3h9.42a12.36,12.36,0,0,1,7.86,2.78,12,12,0,0,1,3.68-2.08,12.38,12.38,0,0,1,4.17-.7h9.43v3.3h6.28v16.49a14.09,14.09,0,0,0-3.14-2.45V391.68H435.3v9.5a11.27,11.27,0,0,0-1.57-.33,12,12,0,0,0-1.57-.11V388.38h-6.29a9.37,9.37,0,0,0-3.34.62,9.06,9.06,0,0,0-2.94,1.83Zm-3.14-.33V390.83A9.7,9.7,0,0,0,413.5,389a9.8,9.8,0,0,0-3.34-.64h-6.28v33h6.28a12.23,12.23,0,0,1,3.24.44A12.37,12.37,0,0,1,416.45,423.08Z" transform="translate(-394.45 -385.08)"/></svg>