<svg id="Layer_1" data-name="Layer 1" xmlns="http://www.w3.org/2000/svg" viewBox="0 0 50.27 40.38"><path d="M475.18,479.63v4h42.54V516H490.65v4h34.8v-4h-3.87V479.63Zm7.74,6.06a7.62,7.62,0,0,0-5.46,2.37,8.33,8.33,0,0,0-2.28,5.71,7.94,7.94,0,0,0,7.74,8.07,7.62,7.62,0,0,0,5.46-2.37,8.36,8.36,0,0,0,2.27-5.7A7.94,7.94,0,0,0,482.92,485.69Zm11.59,2v4h9.67v-4Zm13.54,0v4h5.8v-4Zm-25.13,2a4,4,0,1,1-3.87,4A3.92,3.92,0,0,1,482.92,489.73Zm11.59,6v4h19.34v-4Zm-19.33,8.08V520h3.87V507.9h5.8V520h3.86V509.23l4,2.2a3.71,3.71,0,0,0,3.61,0h0l6.83-3.76-1.8-3.58-6.83,3.77-6-3.3a5.58,5.58,0,0,0-2.71-.7Z" transform="translate(-475.18 -479.63)"/></svg>